<svg width="55" height="55" viewBox="0 0 55 55" fill="none" xmlns="http://www.w3.org/2000/svg">
<circle cx="27.5" cy="27.5" r="27.5" fill="#4E6297"/>
<path d="M39.875 19.0006C39.875 16.9417 38.0583 15.125 35.9994 15.125H20.3756C18.3167 15.125 16.5 16.9417 16.5 19.0006V34.6243C16.5 36.6833 18.3167 38.5 20.3756 38.5H28.2481V29.6587H25.3413V25.783H28.2481V24.2085C28.2481 21.544 30.1859 19.2429 32.6082 19.2429H35.7571V23.1185H32.6082C32.2448 23.1185 31.8815 23.4819 31.8815 24.2085V25.783H35.7571V29.6587H31.8815V38.5H35.9994C38.0583 38.5 39.875 36.6833 39.875 34.6243V19.0006Z" fill="white"/>
</svg>
